<?xml version="1.0" encoding="UTF-8"?>
<svg id="Layer_1" data-name="Layer 1" xmlns="http://www.w3.org/2000/svg" viewBox="0 0 385.39 272.53">
  <defs>
    <style>
      .cls-1 {
        fill: none;
        stroke: #fff;
        stroke-miterlimit: 10;
      }
    </style>
  </defs>
  <path class="cls-1" d="M149.16,220.01l17.37,33.6.94-7.13,3.07-26.47h15.9l-8.91,51.09h-19.38l-16.11-32.52c-3.14,10.74-4.04,21.64-5.26,32.52h-15.9l8.91-51.09h19.38Z"/>
  <path class="cls-1" d="M84.92,219.36c21.73-1.88,36.34,8.51,31.52,29.9-6.84,30.4-66.42,30.65-64.49-.94,1.06-17.31,15.36-27.43,32.97-28.96ZM82.57,230.44c-14.69,2.78-19.41,27.43-3.5,30.22,25.19,4.41,30.17-35.27,3.5-30.22Z"/>
  <path class="cls-1" d="M283.36,220.01c18.82,2.21,16.43,23.11-.89,28.46l7.4,22.63h-17.89l-6.84-26.51c-.08-1.86.2-1.2,1.6-1.35,5.46-.61,13.26-.2,13.34-7.81s-10.9-4.81-16.29-5.2l-5.73,40.87h-16.9l8.91-51.09c10.4.88,23.21-1.19,33.3,0Z"/>
  <polygon class="cls-1" points="233.34 271.09 187.48 271.09 196.38 220.01 240.12 220.01 238.83 231.15 210.25 231.15 209 240.24 232.79 240.31 231.56 250.66 207.74 250.66 206.62 260.3 234.33 260.3 233.34 271.09"/>
  <path class="cls-1" d="M348.97,220.01c.94.28,4.74,9.91,5.86,11.79.39.65-.48,1.61,1.57,1.22l10.47-13.01h17.4l-21.61,24.78,13.69,26.31h-18.39l-8.11-15.77-13.76,15.77h-17.4l24.04-27.4-12.15-23.68h18.39Z"/>
  <polygon class="cls-1" points="51.25 220.01 48.96 231.15 24.11 231.15 23.04 240.44 43.91 240.44 42.62 251.59 20.75 251.59 18.49 271.09 .59 271.09 9.5 220.01 51.25 220.01"/>
  <polygon class="cls-1" points="323.62 220.01 315.71 271.09 297.81 271.09 306.72 220.01 323.62 220.01"/>
  <path class="cls-1" d="M50.65,133.91l80.86-.13s15.02-3.49,26.99-23.83H22.34l-9.65,73.04s-1.17,13.91,11.59,15.04,16.52-14.35,16.52-14.35l9.22-49.82"/>
  <path class="cls-1" d="M168.82,82.95c1.28-5.57,2.29-11.74,2.96-18.56l-108.48-.27h-.81s5.69-32.26,5.69-32.26l106.13-.9s20.58,1.52,29.09-29.99L62.57.56s-24.22-1.86-26.16,16.6l-11.16,65.81,143.56-.02h0Z"/>
  <path class="cls-1" d="M344.32,109.91c-5.29,26.57-28.74,46.6-56.86,46.6s-51.57-20.03-56.86-46.6h-40.51c5.63,48.78,47.08,86.65,97.37,86.65s91.74-37.87,97.37-86.65h-40.51Z"/>
  <path class="cls-1" d="M287.46.5c-48.84,0-89.35,35.72-96.8,82.47h40.94c6.79-24.47,29.23-42.42,55.86-42.42s49.07,17.95,55.86,42.42h40.94C376.81,36.22,336.3.5,287.46.5Z"/>
</svg>