<?xml version="1.0" encoding="UTF-8"?>
<svg id="Layer_1" data-name="Layer 1" xmlns="http://www.w3.org/2000/svg" viewBox="0 0 384.23 271.53">
  <defs>
    <style>
      .cls-1 {
        fill: #fff;
      }
    </style>
  </defs>
  <path class="cls-1" d="M148.57,219.51l17.37,33.6.94-7.13,3.07-26.47h15.9l-8.91,51.09h-19.38l-16.11-32.52c-3.14,10.74-4.04,21.64-5.26,32.52h-15.9l8.91-51.09h19.38Z"/>
  <path class="cls-1" d="M84.32,218.86c21.73-1.88,36.34,8.51,31.52,29.9-6.84,30.4-66.42,30.65-64.49-.94,1.06-17.31,15.36-27.43,32.97-28.96ZM81.98,229.94c-14.69,2.78-19.41,27.43-3.5,30.22,25.19,4.41,30.17-35.27,3.5-30.22Z"/>
  <path class="cls-1" d="M282.77,219.51c18.82,2.21,16.43,23.11-.89,28.46l7.4,22.63h-17.89l-6.84-26.51c-.08-1.86.2-1.2,1.6-1.35,5.46-.61,13.26-.2,13.34-7.81s-10.9-4.81-16.29-5.2l-5.73,40.87h-16.9l8.91-51.09c10.4.88,23.21-1.19,33.3,0Z"/>
  <polygon class="cls-1" points="232.74 270.59 186.88 270.59 195.79 219.51 239.53 219.51 238.23 230.65 209.65 230.65 208.41 239.74 232.2 239.81 230.97 250.16 207.14 250.16 206.03 259.8 233.74 259.8 232.74 270.59"/>
  <path class="cls-1" d="M348.37,219.51c.94.28,4.74,9.91,5.86,11.79.39.65-.48,1.61,1.57,1.22l10.47-13.01h17.4l-21.61,24.78,13.69,26.31h-18.39l-8.11-15.77-13.76,15.77h-17.4l24.04-27.4-12.15-23.68h18.39Z"/>
  <polygon class="cls-1" points="50.66 219.51 48.37 230.65 23.52 230.65 22.44 239.94 43.32 239.94 42.02 251.09 20.15 251.09 17.89 270.59 0 270.59 8.91 219.51 50.66 219.51"/>
  <polygon class="cls-1" points="323.02 219.51 315.11 270.59 297.22 270.59 306.13 219.51 323.02 219.51"/>
  <path class="cls-1" d="M50.06,133.41l80.86-.13s15.02-3.49,26.99-23.83H21.75l-9.65,73.04s-1.17,13.91,11.59,15.04,16.52-14.35,16.52-14.35l9.22-49.82"/>
  <path class="cls-1" d="M168.23,82.45c1.28-5.57,2.29-11.74,2.96-18.56l-108.48-.27h-.81s5.69-32.26,5.69-32.26l106.13-.9s20.58,1.52,29.09-29.99L61.98.06s-24.22-1.86-26.16,16.6l-11.16,65.81,143.56-.02h0Z"/>
  <path class="cls-1" d="M343.72,109.41c-5.29,26.57-28.74,46.6-56.86,46.6s-51.57-20.03-56.86-46.6h-40.51c5.63,48.78,47.08,86.65,97.37,86.65s91.74-37.87,97.37-86.65h-40.51Z"/>
  <path class="cls-1" d="M286.86,0c-48.84,0-89.35,35.72-96.8,82.47h40.94c6.79-24.47,29.23-42.42,55.86-42.42s49.07,17.95,55.86,42.42h40.94C376.21,35.72,335.7,0,286.86,0Z"/>
</svg>